<svg width="20" height="20" viewBox="0 0 20 20" fill="none" xmlns="http://www.w3.org/2000/svg">
<path d="M0.750122 0.75L2.83013 1.10582L3.79313 12.4457C3.87013 13.3718 4.65313 14.0825 5.59313 14.0795H16.5022C17.3992 14.0815 18.1602 13.4291 18.2872 12.5514L19.2362 6.06954C19.3422 5.34505 18.8332 4.67294 18.1012 4.56817C18.0372 4.55927 3.16413 4.55433 3.16413 4.55433" stroke="#363853" stroke-width="1.5" stroke-linecap="round" stroke-linejoin="round"/>
<path d="M12.1251 8.20758H14.8981" stroke="#363853" stroke-width="1.5" stroke-linecap="round" stroke-linejoin="round"/>
<path fill-rule="evenodd" clip-rule="evenodd" d="M5.15442 17.5059C5.45539 17.5059 5.69836 17.7471 5.69836 18.0438C5.69836 18.3415 5.45539 18.5828 5.15442 18.5828C4.85345 18.5828 4.61047 18.3415 4.61047 18.0438C4.61047 17.7471 4.85345 17.5059 5.15442 17.5059Z" fill="#363853" stroke="#363853" stroke-width="1.5" stroke-linecap="round" stroke-linejoin="round"/>
<path fill-rule="evenodd" clip-rule="evenodd" d="M16.4347 17.5059C16.7357 17.5059 16.9797 17.7471 16.9797 18.0438C16.9797 18.3415 16.7357 18.5828 16.4347 18.5828C16.1337 18.5828 15.8907 18.3415 15.8907 18.0438C15.8907 17.7471 16.1337 17.5059 16.4347 17.5059Z" fill="#363853" stroke="#363853" stroke-width="1.5" stroke-linecap="round" stroke-linejoin="round"/>
</svg>
